<?xml version="1.0" encoding="UTF-8" standalone="no"?>
<!DOCTYPE svg PUBLIC "-//W3C//DTD SVG 1.1//EN"
 "http://www.w3.org/Graphics/SVG/1.1/DTD/svg11.dtd">
<!-- Generated by graphviz version 2.44.0 (20200408.0750)
 -->
<!-- Title: dependency&#45;cruiser output Pages: 1 -->
<svg width="484pt" height="248pt"
 viewBox="0.00 0.00 483.52 248.00" xmlns="http://www.w3.org/2000/svg" xmlns:xlink="http://www.w3.org/1999/xlink">
<g id="graph0" class="graph" transform="scale(1 1) rotate(0) translate(4 244)">
<title>dependency&#45;cruiser output</title>
<polygon fill="white" stroke="transparent" points="-4,4 -4,-244 479.52,-244 479.52,4 -4,4"/>
<g id="clust1" class="cluster">
<title>cluster_browser</title>
<path fill="#ffffff" stroke="black" stroke-width="2" d="M20,-8C20,-8 455.52,-8 455.52,-8 461.52,-8 467.52,-14 467.52,-20 467.52,-20 467.52,-220 467.52,-220 467.52,-226 461.52,-232 455.52,-232 455.52,-232 20,-232 20,-232 14,-232 8,-226 8,-220 8,-220 8,-20 8,-20 8,-14 14,-8 20,-8"/>
<text text-anchor="middle" x="237.76" y="-219.9" font-family="Helvetica,sans-Serif" font-weight="bold" font-size="9.00">browser</text>
</g>
<g id="clust2" class="cluster">
<title>cluster_browser/fetch&#45;and&#45;render</title>
<path fill="#ffffff" stroke="black" stroke-width="2" d="M28,-16C28,-16 447.52,-16 447.52,-16 453.52,-16 459.52,-22 459.52,-28 459.52,-28 459.52,-193 459.52,-193 459.52,-199 453.52,-205 447.52,-205 447.52,-205 28,-205 28,-205 22,-205 16,-199 16,-193 16,-193 16,-28 16,-28 16,-22 22,-16 28,-16"/>
<text text-anchor="middle" x="237.76" y="-192.9" font-family="Helvetica,sans-Serif" font-weight="bold" font-size="9.00">fetch&#45;and&#45;render</text>
</g>
<g id="clust3" class="cluster">
<title>cluster_browser/fetch&#45;and&#45;render/examples</title>
<path fill="#ffffff" stroke="black" stroke-width="2" d="M36,-24C36,-24 439.52,-24 439.52,-24 445.52,-24 451.52,-30 451.52,-36 451.52,-36 451.52,-166 451.52,-166 451.52,-172 445.52,-178 439.52,-178 439.52,-178 36,-178 36,-178 30,-178 24,-172 24,-166 24,-166 24,-36 24,-36 24,-30 30,-24 36,-24"/>
<text text-anchor="middle" x="237.76" y="-165.9" font-family="Helvetica,sans-Serif" font-weight="bold" font-size="9.00">examples</text>
</g>
<g id="clust4" class="cluster">
<title>cluster_browser/fetch&#45;and&#45;render/examples/albums</title>
<path fill="#ffffff" stroke="black" stroke-width="2" d="M44,-32C44,-32 431.52,-32 431.52,-32 437.52,-32 443.52,-38 443.52,-44 443.52,-44 443.52,-139 443.52,-139 443.52,-145 437.52,-151 431.52,-151 431.52,-151 44,-151 44,-151 38,-151 32,-145 32,-139 32,-139 32,-44 32,-44 32,-38 38,-32 44,-32"/>
<text text-anchor="middle" x="237.76" y="-138.9" font-family="Helvetica,sans-Serif" font-weight="bold" font-size="9.00">albums</text>
</g>
<g id="clust5" class="cluster">
<title>cluster_browser/fetch&#45;and&#45;render/examples/albums/src</title>
<path fill="#ffffff" stroke="black" stroke-width="2" d="M52,-40C52,-40 423.52,-40 423.52,-40 429.52,-40 435.52,-46 435.52,-52 435.52,-52 435.52,-112 435.52,-112 435.52,-118 429.52,-124 423.52,-124 423.52,-124 52,-124 52,-124 46,-124 40,-118 40,-112 40,-112 40,-52 40,-52 40,-46 46,-40 52,-40"/>
<text text-anchor="middle" x="237.76" y="-111.9" font-family="Helvetica,sans-Serif" font-weight="bold" font-size="9.00">src</text>
</g>
<!-- browser/fetch&#45;and&#45;render/examples/albums/src/business&#45;logic.js -->
<g id="node1" class="node">
<title>browser/fetch&#45;and&#45;render/examples/albums/src/business&#45;logic.js</title>
<g id="a_node1"><a xlink:href="browser/fetch-and-render/examples/albums/src/business-logic.js" xlink:title="business&#45;logic.js">
<path fill="#ffffcc" stroke="black" d="M334.81,-66.3C334.81,-66.3 265.2,-66.3 265.2,-66.3 262.1,-66.3 259,-63.2 259,-60.1 259,-60.1 259,-53.9 259,-53.9 259,-50.8 262.1,-47.7 265.2,-47.7 265.2,-47.7 334.81,-47.7 334.81,-47.7 337.91,-47.7 341.01,-50.8 341.01,-53.9 341.01,-53.9 341.01,-60.1 341.01,-60.1 341.01,-63.2 337.91,-66.3 334.81,-66.3"/>
<text text-anchor="middle" x="300.01" y="-54.3" font-family="Helvetica,sans-Serif" font-size="9.00">business&#45;logic.js</text>
</a>
</g>
</g>
<!-- browser/fetch&#45;and&#45;render/examples/albums/src/data&#45;access.js -->
<g id="node2" class="node">
<title>browser/fetch&#45;and&#45;render/examples/albums/src/data&#45;access.js</title>
<g id="a_node2"><a xlink:href="browser/fetch-and-render/examples/albums/src/data-access.js" xlink:title="data&#45;access.js">
<polygon fill="#ffffcc" stroke="black" points="427.28,-66.3 425.73,-68.37 414.88,-68.37 413.33,-66.3 354.25,-66.3 354.25,-47.7 427.28,-47.7 427.28,-66.3"/>
<text text-anchor="middle" x="390.77" y="-54.3" font-family="Helvetica,sans-Serif" font-size="9.00">data&#45;access.js</text>
</a>
</g>
</g>
<!-- browser/fetch&#45;and&#45;render/examples/albums/src/business&#45;logic.js&#45;&gt;browser/fetch&#45;and&#45;render/examples/albums/src/data&#45;access.js -->
<g id="edge1" class="edge">
<title>browser/fetch&#45;and&#45;render/examples/albums/src/business&#45;logic.js&#45;&gt;browser/fetch&#45;and&#45;render/examples/albums/src/data&#45;access.js</title>
<path fill="none" stroke="#000000" stroke-width="2" stroke-opacity="0.200000" d="M341.23,-57C343.52,-57 345.83,-57 348.12,-57"/>
<polygon fill="#000000" fill-opacity="0.200000" stroke="#000000" stroke-width="2" stroke-opacity="0.200000" points="348.16,-59.1 354.16,-57 348.16,-54.9 348.16,-59.1"/>
</g>
<!-- browser/fetch&#45;and&#45;render/examples/albums/src/components.js -->
<g id="node3" class="node">
<title>browser/fetch&#45;and&#45;render/examples/albums/src/components.js</title>
<g id="a_node3"><a xlink:href="browser/fetch-and-render/examples/albums/src/components.js" xlink:title="components.js">
<path fill="#ffffcc" stroke="black" d="M330.82,-97.3C330.82,-97.3 269.19,-97.3 269.19,-97.3 266.09,-97.3 262.99,-94.2 262.99,-91.1 262.99,-91.1 262.99,-84.9 262.99,-84.9 262.99,-81.8 266.09,-78.7 269.19,-78.7 269.19,-78.7 330.82,-78.7 330.82,-78.7 333.92,-78.7 337.02,-81.8 337.02,-84.9 337.02,-84.9 337.02,-91.1 337.02,-91.1 337.02,-94.2 333.92,-97.3 330.82,-97.3"/>
<text text-anchor="middle" x="300.01" y="-85.3" font-family="Helvetica,sans-Serif" font-size="9.00">components.js</text>
</a>
</g>
</g>
<!-- browser/fetch&#45;and&#45;render/examples/albums/src/handlers.js -->
<g id="node4" class="node">
<title>browser/fetch&#45;and&#45;render/examples/albums/src/handlers.js</title>
<g id="a_node4"><a xlink:href="browser/fetch-and-render/examples/albums/src/handlers.js" xlink:title="handlers.js">
<path fill="#ffffcc" stroke="black" d="M239.56,-81.3C239.56,-81.3 192.94,-81.3 192.94,-81.3 189.84,-81.3 186.74,-78.2 186.74,-75.1 186.74,-75.1 186.74,-68.9 186.74,-68.9 186.74,-65.8 189.84,-62.7 192.94,-62.7 192.94,-62.7 239.56,-62.7 239.56,-62.7 242.66,-62.7 245.76,-65.8 245.76,-68.9 245.76,-68.9 245.76,-75.1 245.76,-75.1 245.76,-78.2 242.66,-81.3 239.56,-81.3"/>
<text text-anchor="middle" x="216.25" y="-69.3" font-family="Helvetica,sans-Serif" font-size="9.00">handlers.js</text>
</a>
</g>
</g>
<!-- browser/fetch&#45;and&#45;render/examples/albums/src/handlers.js&#45;&gt;browser/fetch&#45;and&#45;render/examples/albums/src/business&#45;logic.js -->
<g id="edge2" class="edge">
<title>browser/fetch&#45;and&#45;render/examples/albums/src/handlers.js&#45;&gt;browser/fetch&#45;and&#45;render/examples/albums/src/business&#45;logic.js</title>
<path fill="none" stroke="#000000" stroke-width="2" stroke-opacity="0.200000" d="M245.85,-66.75C248.1,-66.34 250.4,-65.92 252.73,-65.49"/>
<polygon fill="#000000" fill-opacity="0.200000" stroke="#000000" stroke-width="2" stroke-opacity="0.200000" points="253.41,-67.5 258.93,-64.35 252.65,-63.37 253.41,-67.5"/>
</g>
<!-- browser/fetch&#45;and&#45;render/examples/albums/src/handlers.js&#45;&gt;browser/fetch&#45;and&#45;render/examples/albums/src/components.js -->
<g id="edge3" class="edge">
<title>browser/fetch&#45;and&#45;render/examples/albums/src/handlers.js&#45;&gt;browser/fetch&#45;and&#45;render/examples/albums/src/components.js</title>
<path fill="none" stroke="#000000" stroke-width="2" stroke-opacity="0.200000" d="M245.85,-77.6C249.47,-78.31 253.24,-79.04 257.02,-79.78"/>
<polygon fill="#000000" fill-opacity="0.200000" stroke="#000000" stroke-width="2" stroke-opacity="0.200000" points="256.66,-81.85 262.96,-80.94 257.47,-77.73 256.66,-81.85"/>
</g>
<!-- browser/fetch&#45;and&#45;render/examples/albums/src/init.js -->
<g id="node5" class="node">
<title>browser/fetch&#45;and&#45;render/examples/albums/src/init.js</title>
<g id="a_node5"><a xlink:href="browser/fetch-and-render/examples/albums/src/init.js" xlink:title="init.js">
<path fill="#ffffcc" stroke="black" d="M95.8,-81.3C95.8,-81.3 54.2,-81.3 54.2,-81.3 51.1,-81.3 48,-78.2 48,-75.1 48,-75.1 48,-68.9 48,-68.9 48,-65.8 51.1,-62.7 54.2,-62.7 54.2,-62.7 95.8,-62.7 95.8,-62.7 98.9,-62.7 102,-65.8 102,-68.9 102,-68.9 102,-75.1 102,-75.1 102,-78.2 98.9,-81.3 95.8,-81.3"/>
<text text-anchor="middle" x="75" y="-69.3" font-family="Helvetica,sans-Serif" font-size="9.00">init.js</text>
</a>
</g>
</g>
<!-- browser/fetch&#45;and&#45;render/examples/albums/src/listeners.js -->
<g id="node6" class="node">
<title>browser/fetch&#45;and&#45;render/examples/albums/src/listeners.js</title>
<g id="a_node6"><a xlink:href="browser/fetch-and-render/examples/albums/src/listeners.js" xlink:title="listeners.js">
<path fill="#ffffcc" stroke="black" d="M167.55,-81.3C167.55,-81.3 120.95,-81.3 120.95,-81.3 117.85,-81.3 114.75,-78.2 114.75,-75.1 114.75,-75.1 114.75,-68.9 114.75,-68.9 114.75,-65.8 117.85,-62.7 120.95,-62.7 120.95,-62.7 167.55,-62.7 167.55,-62.7 170.65,-62.7 173.75,-65.8 173.75,-68.9 173.75,-68.9 173.75,-75.1 173.75,-75.1 173.75,-78.2 170.65,-81.3 167.55,-81.3"/>
<text text-anchor="middle" x="144.25" y="-69.3" font-family="Helvetica,sans-Serif" font-size="9.00">listeners.js</text>
</a>
</g>
</g>
<!-- browser/fetch&#45;and&#45;render/examples/albums/src/init.js&#45;&gt;browser/fetch&#45;and&#45;render/examples/albums/src/listeners.js -->
<g id="edge4" class="edge">
<title>browser/fetch&#45;and&#45;render/examples/albums/src/init.js&#45;&gt;browser/fetch&#45;and&#45;render/examples/albums/src/listeners.js</title>
<path fill="none" stroke="#000000" stroke-width="2" stroke-opacity="0.200000" d="M102.19,-72C104.26,-72 106.36,-72 108.47,-72"/>
<polygon fill="#000000" fill-opacity="0.200000" stroke="#000000" stroke-width="2" stroke-opacity="0.200000" points="108.79,-74.1 114.79,-72 108.79,-69.9 108.79,-74.1"/>
</g>
<!-- browser/fetch&#45;and&#45;render/examples/albums/src/listeners.js&#45;&gt;browser/fetch&#45;and&#45;render/examples/albums/src/handlers.js -->
<g id="edge5" class="edge">
<title>browser/fetch&#45;and&#45;render/examples/albums/src/listeners.js&#45;&gt;browser/fetch&#45;and&#45;render/examples/albums/src/handlers.js</title>
<path fill="none" stroke="#000000" stroke-width="2" stroke-opacity="0.200000" d="M173.72,-72C175.97,-72 178.26,-72 180.55,-72"/>
<polygon fill="#000000" fill-opacity="0.200000" stroke="#000000" stroke-width="2" stroke-opacity="0.200000" points="180.58,-74.1 186.58,-72 180.58,-69.9 180.58,-74.1"/>
</g>
</g>
</svg>
