<?xml version="1.0" encoding="UTF-8" standalone="no"?>
<!DOCTYPE svg PUBLIC "-//W3C//DTD SVG 1.1//EN"
 "http://www.w3.org/Graphics/SVG/1.1/DTD/svg11.dtd">
<!-- Generated by graphviz version 2.44.0 (20200408.0750)
 -->
<!-- Title: dependency&#45;cruiser output Pages: 1 -->
<svg width="186pt" height="341pt"
 viewBox="0.00 0.00 186.00 341.00" xmlns="http://www.w3.org/2000/svg" xmlns:xlink="http://www.w3.org/1999/xlink">
<g id="graph0" class="graph" transform="scale(1 1) rotate(0) translate(4 337)">
<title>dependency&#45;cruiser output</title>
<polygon fill="white" stroke="transparent" points="-4,4 -4,-337 182,-337 182,4 -4,4"/>
<g id="clust1" class="cluster">
<title>cluster_browser</title>
<path fill="#ffffff" stroke="black" stroke-width="2" d="M20,-8C20,-8 158,-8 158,-8 164,-8 170,-14 170,-20 170,-20 170,-313 170,-313 170,-319 164,-325 158,-325 158,-325 20,-325 20,-325 14,-325 8,-319 8,-313 8,-313 8,-20 8,-20 8,-14 14,-8 20,-8"/>
<text text-anchor="middle" x="89" y="-312.9" font-family="Helvetica,sans-Serif" font-weight="bold" font-size="9.00">browser</text>
</g>
<g id="clust2" class="cluster">
<title>cluster_browser/fetch&#45;and&#45;render</title>
<path fill="#ffffff" stroke="black" stroke-width="2" d="M28,-16C28,-16 150,-16 150,-16 156,-16 162,-22 162,-28 162,-28 162,-286 162,-286 162,-292 156,-298 150,-298 150,-298 28,-298 28,-298 22,-298 16,-292 16,-286 16,-286 16,-28 16,-28 16,-22 22,-16 28,-16"/>
<text text-anchor="middle" x="89" y="-285.9" font-family="Helvetica,sans-Serif" font-weight="bold" font-size="9.00">fetch&#45;and&#45;render</text>
</g>
<g id="clust3" class="cluster">
<title>cluster_browser/fetch&#45;and&#45;render/exercises</title>
<path fill="#ffffff" stroke="black" stroke-width="2" d="M36,-24C36,-24 142,-24 142,-24 148,-24 154,-30 154,-36 154,-36 154,-259 154,-259 154,-265 148,-271 142,-271 142,-271 36,-271 36,-271 30,-271 24,-265 24,-259 24,-259 24,-36 24,-36 24,-30 30,-24 36,-24"/>
<text text-anchor="middle" x="89" y="-258.9" font-family="Helvetica,sans-Serif" font-weight="bold" font-size="9.00">exercises</text>
</g>
<g id="clust4" class="cluster">
<title>cluster_browser/fetch&#45;and&#45;render/exercises/users</title>
<path fill="#ffffff" stroke="black" stroke-width="2" d="M44,-32C44,-32 134,-32 134,-32 140,-32 146,-38 146,-44 146,-44 146,-232 146,-232 146,-238 140,-244 134,-244 134,-244 44,-244 44,-244 38,-244 32,-238 32,-232 32,-232 32,-44 32,-44 32,-38 38,-32 44,-32"/>
<text text-anchor="middle" x="89" y="-231.9" font-family="Helvetica,sans-Serif" font-weight="bold" font-size="9.00">users</text>
</g>
<g id="clust5" class="cluster">
<title>cluster_browser/fetch&#45;and&#45;render/exercises/users/src</title>
<path fill="#ffffff" stroke="black" stroke-width="2" d="M52,-40C52,-40 126,-40 126,-40 132,-40 138,-46 138,-52 138,-52 138,-205 138,-205 138,-211 132,-217 126,-217 126,-217 52,-217 52,-217 46,-217 40,-211 40,-205 40,-205 40,-52 40,-52 40,-46 46,-40 52,-40"/>
<text text-anchor="middle" x="89" y="-204.9" font-family="Helvetica,sans-Serif" font-weight="bold" font-size="9.00">src</text>
</g>
<!-- browser/fetch&#45;and&#45;render/exercises/users/src/business&#45;logic.js -->
<g id="node1" class="node">
<title>browser/fetch&#45;and&#45;render/exercises/users/src/business&#45;logic.js</title>
<g id="a_node1"><a xlink:href="browser/fetch-and-render/exercises/users/src/business-logic.js" xlink:title="business&#45;logic.js">
<path fill="#ccffcc" stroke="black" d="M123.81,-190.3C123.81,-190.3 54.2,-190.3 54.2,-190.3 51.1,-190.3 48,-187.2 48,-184.1 48,-184.1 48,-177.9 48,-177.9 48,-174.8 51.1,-171.7 54.2,-171.7 54.2,-171.7 123.81,-171.7 123.81,-171.7 126.91,-171.7 130.01,-174.8 130.01,-177.9 130.01,-177.9 130.01,-184.1 130.01,-184.1 130.01,-187.2 126.91,-190.3 123.81,-190.3"/>
<text text-anchor="middle" x="89" y="-178.3" font-family="Helvetica,sans-Serif" font-size="9.00">business&#45;logic.js</text>
</a>
</g>
</g>
<!-- browser/fetch&#45;and&#45;render/exercises/users/src/components.js -->
<g id="node2" class="node">
<title>browser/fetch&#45;and&#45;render/exercises/users/src/components.js</title>
<g id="a_node2"><a xlink:href="browser/fetch-and-render/exercises/users/src/components.js" xlink:title="components.js">
<path fill="#ccffcc" stroke="black" d="M119.82,-159.3C119.82,-159.3 58.19,-159.3 58.19,-159.3 55.09,-159.3 51.99,-156.2 51.99,-153.1 51.99,-153.1 51.99,-146.9 51.99,-146.9 51.99,-143.8 55.09,-140.7 58.19,-140.7 58.19,-140.7 119.82,-140.7 119.82,-140.7 122.92,-140.7 126.02,-143.8 126.02,-146.9 126.02,-146.9 126.02,-153.1 126.02,-153.1 126.02,-156.2 122.92,-159.3 119.82,-159.3"/>
<text text-anchor="middle" x="89" y="-147.3" font-family="Helvetica,sans-Serif" font-size="9.00">components.js</text>
</a>
</g>
</g>
<!-- browser/fetch&#45;and&#45;render/exercises/users/src/handlers.js -->
<g id="node3" class="node">
<title>browser/fetch&#45;and&#45;render/exercises/users/src/handlers.js</title>
<g id="a_node3"><a xlink:href="browser/fetch-and-render/exercises/users/src/handlers.js" xlink:title="handlers.js">
<path fill="#ccffcc" stroke="black" d="M112.31,-128.3C112.31,-128.3 65.69,-128.3 65.69,-128.3 62.59,-128.3 59.49,-125.2 59.49,-122.1 59.49,-122.1 59.49,-115.9 59.49,-115.9 59.49,-112.8 62.59,-109.7 65.69,-109.7 65.69,-109.7 112.31,-109.7 112.31,-109.7 115.41,-109.7 118.51,-112.8 118.51,-115.9 118.51,-115.9 118.51,-122.1 118.51,-122.1 118.51,-125.2 115.41,-128.3 112.31,-128.3"/>
<text text-anchor="middle" x="89" y="-116.3" font-family="Helvetica,sans-Serif" font-size="9.00">handlers.js</text>
</a>
</g>
</g>
<!-- browser/fetch&#45;and&#45;render/exercises/users/src/init.js -->
<g id="node4" class="node">
<title>browser/fetch&#45;and&#45;render/exercises/users/src/init.js</title>
<g id="a_node4"><a xlink:href="browser/fetch-and-render/exercises/users/src/init.js" xlink:title="init.js">
<path fill="#ccffcc" stroke="black" d="M109.8,-97.3C109.8,-97.3 68.2,-97.3 68.2,-97.3 65.1,-97.3 62,-94.2 62,-91.1 62,-91.1 62,-84.9 62,-84.9 62,-81.8 65.1,-78.7 68.2,-78.7 68.2,-78.7 109.8,-78.7 109.8,-78.7 112.9,-78.7 116,-81.8 116,-84.9 116,-84.9 116,-91.1 116,-91.1 116,-94.2 112.9,-97.3 109.8,-97.3"/>
<text text-anchor="middle" x="89" y="-85.3" font-family="Helvetica,sans-Serif" font-size="9.00">init.js</text>
</a>
</g>
</g>
<!-- browser/fetch&#45;and&#45;render/exercises/users/src/listeners.js -->
<g id="node5" class="node">
<title>browser/fetch&#45;and&#45;render/exercises/users/src/listeners.js</title>
<g id="a_node5"><a xlink:href="browser/fetch-and-render/exercises/users/src/listeners.js" xlink:title="listeners.js">
<path fill="#ccffcc" stroke="black" d="M112.3,-66.3C112.3,-66.3 65.7,-66.3 65.7,-66.3 62.6,-66.3 59.5,-63.2 59.5,-60.1 59.5,-60.1 59.5,-53.9 59.5,-53.9 59.5,-50.8 62.6,-47.7 65.7,-47.7 65.7,-47.7 112.3,-47.7 112.3,-47.7 115.4,-47.7 118.5,-50.8 118.5,-53.9 118.5,-53.9 118.5,-60.1 118.5,-60.1 118.5,-63.2 115.4,-66.3 112.3,-66.3"/>
<text text-anchor="middle" x="89" y="-54.3" font-family="Helvetica,sans-Serif" font-size="9.00">listeners.js</text>
</a>
</g>
</g>
</g>
</svg>
