<?xml version="1.0" encoding="UTF-8" standalone="no"?>
<!DOCTYPE svg PUBLIC "-//W3C//DTD SVG 1.1//EN"
 "http://www.w3.org/Graphics/SVG/1.1/DTD/svg11.dtd">
<!-- Generated by graphviz version 2.44.0 (20200408.0750)
 -->
<!-- Title: dependency&#45;cruiser output Pages: 1 -->
<svg width="126pt" height="147pt"
 viewBox="0.00 0.00 126.00 147.00" xmlns="http://www.w3.org/2000/svg" xmlns:xlink="http://www.w3.org/1999/xlink">
<g id="graph0" class="graph" transform="scale(1 1) rotate(0) translate(4 143)">
<title>dependency&#45;cruiser output</title>
<polygon fill="white" stroke="transparent" points="-4,4 -4,-143 122,-143 122,4 -4,4"/>
<g id="clust1" class="cluster">
<title>cluster_7&#45;reverse&#45;engineer</title>
<path fill="#ffffff" stroke="black" stroke-width="2" d="M20,-8C20,-8 98,-8 98,-8 104,-8 110,-14 110,-20 110,-20 110,-119 110,-119 110,-125 104,-131 98,-131 98,-131 20,-131 20,-131 14,-131 8,-125 8,-119 8,-119 8,-20 8,-20 8,-14 14,-8 20,-8"/>
<text text-anchor="middle" x="59" y="-118.9" font-family="Helvetica,sans-Serif" font-weight="bold" font-size="9.00">7&#45;reverse&#45;engineer</text>
</g>
<g id="clust2" class="cluster">
<title>cluster_7&#45;reverse&#45;engineer/2&#45;github&#45;finder</title>
<path fill="#ffffff" stroke="black" stroke-width="2" d="M28,-16C28,-16 90,-16 90,-16 96,-16 102,-22 102,-28 102,-28 102,-92 102,-92 102,-98 96,-104 90,-104 90,-104 28,-104 28,-104 22,-104 16,-98 16,-92 16,-92 16,-28 16,-28 16,-22 22,-16 28,-16"/>
<text text-anchor="middle" x="59" y="-91.9" font-family="Helvetica,sans-Serif" font-weight="bold" font-size="9.00">2&#45;github&#45;finder</text>
</g>
<g id="clust3" class="cluster">
<title>cluster_7&#45;reverse&#45;engineer/2&#45;github&#45;finder/src</title>
<path fill="#ffffff" stroke="black" stroke-width="2" d="M36,-24C36,-24 82,-24 82,-24 88,-24 94,-30 94,-36 94,-36 94,-65 94,-65 94,-71 88,-77 82,-77 82,-77 36,-77 36,-77 30,-77 24,-71 24,-65 24,-65 24,-36 24,-36 24,-30 30,-24 36,-24"/>
<text text-anchor="middle" x="59" y="-64.9" font-family="Helvetica,sans-Serif" font-weight="bold" font-size="9.00">src</text>
</g>
<!-- 7&#45;reverse&#45;engineer/2&#45;github&#45;finder/src/init.js -->
<g id="node1" class="node">
<title>7&#45;reverse&#45;engineer/2&#45;github&#45;finder/src/init.js</title>
<g id="a_node1"><a xlink:href="7-reverse-engineer/2-github-finder/src/init.js" xlink:title="init.js">
<path fill="#ccffcc" stroke="black" d="M79.8,-50.3C79.8,-50.3 38.2,-50.3 38.2,-50.3 35.1,-50.3 32,-47.2 32,-44.1 32,-44.1 32,-37.9 32,-37.9 32,-34.8 35.1,-31.7 38.2,-31.7 38.2,-31.7 79.8,-31.7 79.8,-31.7 82.9,-31.7 86,-34.8 86,-37.9 86,-37.9 86,-44.1 86,-44.1 86,-47.2 82.9,-50.3 79.8,-50.3"/>
<text text-anchor="middle" x="59" y="-38.3" font-family="Helvetica,sans-Serif" font-size="9.00">init.js</text>
</a>
</g>
</g>
</g>
</svg>
