<?xml version="1.0" encoding="UTF-8" standalone="no"?>
<!DOCTYPE svg PUBLIC "-//W3C//DTD SVG 1.1//EN"
 "http://www.w3.org/Graphics/SVG/1.1/DTD/svg11.dtd">
<!-- Generated by graphviz version 2.44.0 (20200408.0750)
 -->
<!-- Title: dependency&#45;cruiser output Pages: 1 -->
<svg width="142pt" height="182pt"
 viewBox="0.00 0.00 142.00 182.00" xmlns="http://www.w3.org/2000/svg" xmlns:xlink="http://www.w3.org/1999/xlink">
<g id="graph0" class="graph" transform="scale(1 1) rotate(0) translate(4 178)">
<title>dependency&#45;cruiser output</title>
<polygon fill="white" stroke="transparent" points="-4,4 -4,-178 138,-178 138,4 -4,4"/>
<g id="clust1" class="cluster">
<title>cluster_6&#45;fetch&#45;and&#45;render</title>
<path fill="#ffffff" stroke="black" stroke-width="2" d="M20,-8C20,-8 114,-8 114,-8 120,-8 126,-14 126,-20 126,-20 126,-154 126,-154 126,-160 120,-166 114,-166 114,-166 20,-166 20,-166 14,-166 8,-160 8,-154 8,-154 8,-20 8,-20 8,-14 14,-8 20,-8"/>
<text text-anchor="middle" x="67" y="-153.9" font-family="Helvetica,sans-Serif" font-weight="bold" font-size="9.00">6&#45;fetch&#45;and&#45;render</text>
</g>
<g id="clust2" class="cluster">
<title>cluster_6&#45;fetch&#45;and&#45;render/exercises</title>
<path fill="#ffffff" stroke="black" stroke-width="2" d="M28,-16C28,-16 106,-16 106,-16 112,-16 118,-22 118,-28 118,-28 118,-127 118,-127 118,-133 112,-139 106,-139 106,-139 28,-139 28,-139 22,-139 16,-133 16,-127 16,-127 16,-28 16,-28 16,-22 22,-16 28,-16"/>
<text text-anchor="middle" x="67" y="-126.9" font-family="Helvetica,sans-Serif" font-weight="bold" font-size="9.00">exercises</text>
</g>
<g id="clust3" class="cluster">
<title>cluster_6&#45;fetch&#45;and&#45;render/exercises/users</title>
<path fill="#ffffff" stroke="black" stroke-width="2" d="M36,-24C36,-24 98,-24 98,-24 104,-24 110,-30 110,-36 110,-36 110,-100 110,-100 110,-106 104,-112 98,-112 98,-112 36,-112 36,-112 30,-112 24,-106 24,-100 24,-100 24,-36 24,-36 24,-30 30,-24 36,-24"/>
<text text-anchor="middle" x="67" y="-99.9" font-family="Helvetica,sans-Serif" font-weight="bold" font-size="9.00">users</text>
</g>
<g id="clust4" class="cluster">
<title>cluster_6&#45;fetch&#45;and&#45;render/exercises/users/src</title>
<path fill="#ffffff" stroke="black" stroke-width="2" d="M44,-32C44,-32 90,-32 90,-32 96,-32 102,-38 102,-44 102,-44 102,-73 102,-73 102,-79 96,-85 90,-85 90,-85 44,-85 44,-85 38,-85 32,-79 32,-73 32,-73 32,-44 32,-44 32,-38 38,-32 44,-32"/>
<text text-anchor="middle" x="67" y="-72.9" font-family="Helvetica,sans-Serif" font-weight="bold" font-size="9.00">src</text>
</g>
<!-- 6&#45;fetch&#45;and&#45;render/exercises/users/src/init.js -->
<g id="node1" class="node">
<title>6&#45;fetch&#45;and&#45;render/exercises/users/src/init.js</title>
<g id="a_node1"><a xlink:href="6-fetch-and-render/exercises/users/src/init.js" xlink:title="init.js">
<path fill="#ccffcc" stroke="black" d="M87.8,-58.3C87.8,-58.3 46.2,-58.3 46.2,-58.3 43.1,-58.3 40,-55.2 40,-52.1 40,-52.1 40,-45.9 40,-45.9 40,-42.8 43.1,-39.7 46.2,-39.7 46.2,-39.7 87.8,-39.7 87.8,-39.7 90.9,-39.7 94,-42.8 94,-45.9 94,-45.9 94,-52.1 94,-52.1 94,-55.2 90.9,-58.3 87.8,-58.3"/>
<text text-anchor="middle" x="67" y="-46.3" font-family="Helvetica,sans-Serif" font-size="9.00">init.js</text>
</a>
</g>
</g>
</g>
</svg>
