<?xml version="1.0" encoding="UTF-8" standalone="no"?>
<!DOCTYPE svg PUBLIC "-//W3C//DTD SVG 1.1//EN"
 "http://www.w3.org/Graphics/SVG/1.1/DTD/svg11.dtd">
<!-- Generated by graphviz version 2.44.0 (20200408.0750)
 -->
<!-- Title: dependency&#45;cruiser output Pages: 1 -->
<svg width="126pt" height="147pt"
 viewBox="0.00 0.00 126.00 147.00" xmlns="http://www.w3.org/2000/svg" xmlns:xlink="http://www.w3.org/1999/xlink">
<g id="graph0" class="graph" transform="scale(1 1) rotate(0) translate(4 143)">
<title>dependency&#45;cruiser output</title>
<polygon fill="white" stroke="transparent" points="-4,4 -4,-143 122,-143 122,4 -4,4"/>
<g id="clust1" class="cluster">
<title>cluster_7&#45;reverse&#45;engineer</title>
<path fill="#ffffff" stroke="black" stroke-width="2" d="M14,-8C14,-8 105,-8 105,-8 111,-8 117,-14 117,-20 117,-20 117,-119 117,-119 117,-125 111,-131 105,-131 105,-131 14,-131 14,-131 8,-131 2,-125 2,-119 2,-119 2,-20 2,-20 2,-14 8,-8 14,-8"/>
<text text-anchor="middle" x="59.5" y="-118.9" font-family="Helvetica,sans-Serif" font-weight="bold" font-size="9.00">7&#45;reverse&#45;engineer</text>
</g>
<g id="clust2" class="cluster">
<title>cluster_7&#45;reverse&#45;engineer/1&#45;wikipedia&#45;searcher</title>
<path fill="#ffffff" stroke="black" stroke-width="2" d="M22,-16C22,-16 97,-16 97,-16 103,-16 109,-22 109,-28 109,-28 109,-92 109,-92 109,-98 103,-104 97,-104 97,-104 22,-104 22,-104 16,-104 10,-98 10,-92 10,-92 10,-28 10,-28 10,-22 16,-16 22,-16"/>
<text text-anchor="middle" x="59.5" y="-91.9" font-family="Helvetica,sans-Serif" font-weight="bold" font-size="9.00">1&#45;wikipedia&#45;searcher</text>
</g>
<g id="clust3" class="cluster">
<title>cluster_7&#45;reverse&#45;engineer/1&#45;wikipedia&#45;searcher/src</title>
<path fill="#ffffff" stroke="black" stroke-width="2" d="M36,-24C36,-24 82,-24 82,-24 88,-24 94,-30 94,-36 94,-36 94,-65 94,-65 94,-71 88,-77 82,-77 82,-77 36,-77 36,-77 30,-77 24,-71 24,-65 24,-65 24,-36 24,-36 24,-30 30,-24 36,-24"/>
<text text-anchor="middle" x="59" y="-64.9" font-family="Helvetica,sans-Serif" font-weight="bold" font-size="9.00">src</text>
</g>
<!-- 7&#45;reverse&#45;engineer/1&#45;wikipedia&#45;searcher/src/init.js -->
<g id="node1" class="node">
<title>7&#45;reverse&#45;engineer/1&#45;wikipedia&#45;searcher/src/init.js</title>
<g id="a_node1"><a xlink:href="7-reverse-engineer/1-wikipedia-searcher/src/init.js" xlink:title="init.js">
<path fill="#ccffcc" stroke="black" d="M79.8,-50.3C79.8,-50.3 38.2,-50.3 38.2,-50.3 35.1,-50.3 32,-47.2 32,-44.1 32,-44.1 32,-37.9 32,-37.9 32,-34.8 35.1,-31.7 38.2,-31.7 38.2,-31.7 79.8,-31.7 79.8,-31.7 82.9,-31.7 86,-34.8 86,-37.9 86,-37.9 86,-44.1 86,-44.1 86,-47.2 82.9,-50.3 79.8,-50.3"/>
<text text-anchor="middle" x="59" y="-38.3" font-family="Helvetica,sans-Serif" font-size="9.00">init.js</text>
</a>
</g>
</g>
</g>
</svg>
