<?xml version="1.0" encoding="UTF-8" standalone="no"?>
<!DOCTYPE svg PUBLIC "-//W3C//DTD SVG 1.1//EN"
 "http://www.w3.org/Graphics/SVG/1.1/DTD/svg11.dtd">
<!-- Generated by graphviz version 2.44.0 (20200408.0750)
 -->
<!-- Title: dependency&#45;cruiser output Pages: 1 -->
<svg width="604pt" height="340pt"
 viewBox="0.00 0.00 603.54 340.00" xmlns="http://www.w3.org/2000/svg" xmlns:xlink="http://www.w3.org/1999/xlink">
<g id="graph0" class="graph" transform="scale(1 1) rotate(0) translate(4 336)">
<title>dependency&#45;cruiser output</title>
<polygon fill="white" stroke="transparent" points="-4,4 -4,-336 599.54,-336 599.54,4 -4,4"/>
<g id="clust1" class="cluster">
<title>cluster_6&#45;fetch&#45;and&#45;render</title>
<path fill="#ffffff" stroke="black" stroke-width="2" d="M20,-8C20,-8 575.54,-8 575.54,-8 581.54,-8 587.54,-14 587.54,-20 587.54,-20 587.54,-312 587.54,-312 587.54,-318 581.54,-324 575.54,-324 575.54,-324 20,-324 20,-324 14,-324 8,-318 8,-312 8,-312 8,-20 8,-20 8,-14 14,-8 20,-8"/>
<text text-anchor="middle" x="297.77" y="-311.9" font-family="Helvetica,sans-Serif" font-weight="bold" font-size="9.00">6&#45;fetch&#45;and&#45;render</text>
</g>
<g id="clust2" class="cluster">
<title>cluster_6&#45;fetch&#45;and&#45;render/examples</title>
<path fill="#ffffff" stroke="black" stroke-width="2" d="M28,-16C28,-16 567.54,-16 567.54,-16 573.54,-16 579.54,-22 579.54,-28 579.54,-28 579.54,-285 579.54,-285 579.54,-291 573.54,-297 567.54,-297 567.54,-297 28,-297 28,-297 22,-297 16,-291 16,-285 16,-285 16,-28 16,-28 16,-22 22,-16 28,-16"/>
<text text-anchor="middle" x="297.77" y="-284.9" font-family="Helvetica,sans-Serif" font-weight="bold" font-size="9.00">examples</text>
</g>
<g id="clust3" class="cluster">
<title>cluster_6&#45;fetch&#45;and&#45;render/examples/albums</title>
<path fill="#ffffff" stroke="black" stroke-width="2" d="M36,-24C36,-24 559.54,-24 559.54,-24 565.54,-24 571.54,-30 571.54,-36 571.54,-36 571.54,-258 571.54,-258 571.54,-264 565.54,-270 559.54,-270 559.54,-270 36,-270 36,-270 30,-270 24,-264 24,-258 24,-258 24,-36 24,-36 24,-30 30,-24 36,-24"/>
<text text-anchor="middle" x="297.77" y="-257.9" font-family="Helvetica,sans-Serif" font-weight="bold" font-size="9.00">albums</text>
</g>
<g id="clust4" class="cluster">
<title>cluster_6&#45;fetch&#45;and&#45;render/examples/albums/src</title>
<path fill="#ffffff" stroke="black" stroke-width="2" d="M44,-32C44,-32 551.54,-32 551.54,-32 557.54,-32 563.54,-38 563.54,-44 563.54,-44 563.54,-231 563.54,-231 563.54,-237 557.54,-243 551.54,-243 551.54,-243 44,-243 44,-243 38,-243 32,-237 32,-231 32,-231 32,-44 32,-44 32,-38 38,-32 44,-32"/>
<text text-anchor="middle" x="297.77" y="-230.9" font-family="Helvetica,sans-Serif" font-weight="bold" font-size="9.00">src</text>
</g>
<g id="clust5" class="cluster">
<title>cluster_6&#45;fetch&#45;and&#45;render/examples/albums/src/api&#45;calls</title>
<path fill="#ffffff" stroke="black" stroke-width="2" d="M362.52,-40C362.52,-40 451.03,-40 451.03,-40 457.03,-40 463.03,-46 463.03,-52 463.03,-52 463.03,-81 463.03,-81 463.03,-87 457.03,-93 451.03,-93 451.03,-93 362.52,-93 362.52,-93 356.52,-93 350.52,-87 350.52,-81 350.52,-81 350.52,-52 350.52,-52 350.52,-46 356.52,-40 362.52,-40"/>
<text text-anchor="middle" x="406.78" y="-80.9" font-family="Helvetica,sans-Serif" font-weight="bold" font-size="9.00">api&#45;calls</text>
</g>
<g id="clust6" class="cluster">
<title>cluster_6&#45;fetch&#45;and&#45;render/examples/albums/src/components</title>
<path fill="#ffffff" stroke="black" stroke-width="2" d="M371.52,-101C371.52,-101 543.54,-101 543.54,-101 549.54,-101 555.54,-107 555.54,-113 555.54,-113 555.54,-204 555.54,-204 555.54,-210 549.54,-216 543.54,-216 543.54,-216 371.52,-216 371.52,-216 365.52,-216 359.52,-210 359.52,-204 359.52,-204 359.52,-113 359.52,-113 359.52,-107 365.52,-101 371.52,-101"/>
<text text-anchor="middle" x="457.53" y="-203.9" font-family="Helvetica,sans-Serif" font-weight="bold" font-size="9.00">components</text>
</g>
<g id="clust7" class="cluster">
<title>cluster_6&#45;fetch&#45;and&#45;render/examples/albums/src/handlers</title>
<path fill="#ffffff" stroke="black" stroke-width="2" d="M257.01,-116C257.01,-116 330.52,-116 330.52,-116 336.52,-116 342.52,-122 342.52,-128 342.52,-128 342.52,-157 342.52,-157 342.52,-163 336.52,-169 330.52,-169 330.52,-169 257.01,-169 257.01,-169 251.01,-169 245.01,-163 245.01,-157 245.01,-157 245.01,-128 245.01,-128 245.01,-122 251.01,-116 257.01,-116"/>
<text text-anchor="middle" x="293.77" y="-156.9" font-family="Helvetica,sans-Serif" font-weight="bold" font-size="9.00">handlers</text>
</g>
<g id="clust8" class="cluster">
<title>cluster_6&#45;fetch&#45;and&#45;render/examples/albums/src/listeners</title>
<path fill="#ffffff" stroke="black" stroke-width="2" d="M114,-116C114,-116 225.01,-116 225.01,-116 231.01,-116 237.01,-122 237.01,-128 237.01,-128 237.01,-157 237.01,-157 237.01,-163 231.01,-169 225.01,-169 225.01,-169 114,-169 114,-169 108,-169 102,-163 102,-157 102,-157 102,-128 102,-128 102,-122 108,-116 114,-116"/>
<text text-anchor="middle" x="169.51" y="-156.9" font-family="Helvetica,sans-Serif" font-weight="bold" font-size="9.00">listeners</text>
</g>
<!-- 6&#45;fetch&#45;and&#45;render/examples/albums/src/api&#45;calls/typicode&#45;resource.js -->
<g id="node1" class="node">
<title>6&#45;fetch&#45;and&#45;render/examples/albums/src/api&#45;calls/typicode&#45;resource.js</title>
<g id="a_node1"><a xlink:href="6-fetch-and-render/examples/albums/src/api-calls/typicode-resource.js" xlink:title="typicode&#45;resource.js">
<path fill="#ffffcc" stroke="black" d="M448.59,-66.3C448.59,-66.3 364.97,-66.3 364.97,-66.3 361.86,-66.3 358.76,-63.2 358.76,-60.1 358.76,-60.1 358.76,-53.9 358.76,-53.9 358.76,-50.8 361.86,-47.7 364.97,-47.7 364.97,-47.7 448.59,-47.7 448.59,-47.7 451.69,-47.7 454.79,-50.8 454.79,-53.9 454.79,-53.9 454.79,-60.1 454.79,-60.1 454.79,-63.2 451.69,-66.3 448.59,-66.3"/>
<text text-anchor="middle" x="406.78" y="-54.3" font-family="Helvetica,sans-Serif" font-size="9.00">typicode&#45;resource.js</text>
</a>
</g>
</g>
<!-- 6&#45;fetch&#45;and&#45;render/examples/albums/src/config.js -->
<g id="node2" class="node">
<title>6&#45;fetch&#45;and&#45;render/examples/albums/src/config.js</title>
<g id="a_node2"><a xlink:href="6-fetch-and-render/examples/albums/src/config.js" xlink:title="config.js">
<path fill="#ffffcc" stroke="black" d="M530.09,-66.3C530.09,-66.3 488.49,-66.3 488.49,-66.3 485.39,-66.3 482.29,-63.2 482.29,-60.1 482.29,-60.1 482.29,-53.9 482.29,-53.9 482.29,-50.8 485.39,-47.7 488.49,-47.7 488.49,-47.7 530.09,-47.7 530.09,-47.7 533.19,-47.7 536.29,-50.8 536.29,-53.9 536.29,-53.9 536.29,-60.1 536.29,-60.1 536.29,-63.2 533.19,-66.3 530.09,-66.3"/>
<text text-anchor="middle" x="509.29" y="-54.3" font-family="Helvetica,sans-Serif" font-size="9.00">config.js</text>
</a>
</g>
</g>
<!-- 6&#45;fetch&#45;and&#45;render/examples/albums/src/api&#45;calls/typicode&#45;resource.js&#45;&gt;6&#45;fetch&#45;and&#45;render/examples/albums/src/config.js -->
<g id="edge1" class="edge">
<title>6&#45;fetch&#45;and&#45;render/examples/albums/src/api&#45;calls/typicode&#45;resource.js&#45;&gt;6&#45;fetch&#45;and&#45;render/examples/albums/src/config.js</title>
<path fill="none" stroke="#000000" stroke-width="2" stroke-opacity="0.200000" d="M454.79,-57C461.99,-57 469.28,-57 476.06,-57"/>
<polygon fill="#000000" fill-opacity="0.200000" stroke="#000000" stroke-width="2" stroke-opacity="0.200000" points="476.13,-59.1 482.13,-57 476.13,-54.9 476.13,-59.1"/>
</g>
<!-- 6&#45;fetch&#45;and&#45;render/examples/albums/src/components/four&#45;oh&#45;four.js -->
<g id="node3" class="node">
<title>6&#45;fetch&#45;and&#45;render/examples/albums/src/components/four&#45;oh&#45;four.js</title>
<g id="a_node3"><a xlink:href="6-fetch-and-render/examples/albums/src/components/four-oh-four.js" xlink:title="four&#45;oh&#45;four.js">
<path fill="#ffffcc" stroke="black" d="M436.58,-189.3C436.58,-189.3 376.97,-189.3 376.97,-189.3 373.87,-189.3 370.77,-186.2 370.77,-183.1 370.77,-183.1 370.77,-176.9 370.77,-176.9 370.77,-173.8 373.87,-170.7 376.97,-170.7 376.97,-170.7 436.58,-170.7 436.58,-170.7 439.68,-170.7 442.78,-173.8 442.78,-176.9 442.78,-176.9 442.78,-183.1 442.78,-183.1 442.78,-186.2 439.68,-189.3 436.58,-189.3"/>
<text text-anchor="middle" x="406.78" y="-177.3" font-family="Helvetica,sans-Serif" font-size="9.00">four&#45;oh&#45;four.js</text>
</a>
</g>
</g>
<!-- 6&#45;fetch&#45;and&#45;render/examples/albums/src/components/other&#45;error.js -->
<g id="node4" class="node">
<title>6&#45;fetch&#45;and&#45;render/examples/albums/src/components/other&#45;error.js</title>
<g id="a_node4"><a xlink:href="6-fetch-and-render/examples/albums/src/components/other-error.js" xlink:title="other&#45;error.js">
<path fill="#ffffcc" stroke="black" d="M434.57,-158.3C434.57,-158.3 378.98,-158.3 378.98,-158.3 375.88,-158.3 372.78,-155.2 372.78,-152.1 372.78,-152.1 372.78,-145.9 372.78,-145.9 372.78,-142.8 375.88,-139.7 378.98,-139.7 378.98,-139.7 434.57,-139.7 434.57,-139.7 437.67,-139.7 440.77,-142.8 440.77,-145.9 440.77,-145.9 440.77,-152.1 440.77,-152.1 440.77,-155.2 437.67,-158.3 434.57,-158.3"/>
<text text-anchor="middle" x="406.78" y="-146.3" font-family="Helvetica,sans-Serif" font-size="9.00">other&#45;error.js</text>
</a>
</g>
</g>
<!-- 6&#45;fetch&#45;and&#45;render/examples/albums/src/components/render&#45;album.js -->
<g id="node5" class="node">
<title>6&#45;fetch&#45;and&#45;render/examples/albums/src/components/render&#45;album.js</title>
<g id="a_node5"><a xlink:href="6-fetch-and-render/examples/albums/src/components/render-album.js" xlink:title="render&#45;album.js">
<path fill="#ffffcc" stroke="black" d="M439.58,-127.3C439.58,-127.3 373.97,-127.3 373.97,-127.3 370.87,-127.3 367.77,-124.2 367.77,-121.1 367.77,-121.1 367.77,-114.9 367.77,-114.9 367.77,-111.8 370.87,-108.7 373.97,-108.7 373.97,-108.7 439.58,-108.7 439.58,-108.7 442.68,-108.7 445.78,-111.8 445.78,-114.9 445.78,-114.9 445.78,-121.1 445.78,-121.1 445.78,-124.2 442.68,-127.3 439.58,-127.3"/>
<text text-anchor="middle" x="406.78" y="-115.3" font-family="Helvetica,sans-Serif" font-size="9.00">render&#45;album.js</text>
</a>
</g>
</g>
<!-- 6&#45;fetch&#45;and&#45;render/examples/albums/src/components/render&#45;photo.js -->
<g id="node6" class="node">
<title>6&#45;fetch&#45;and&#45;render/examples/albums/src/components/render&#45;photo.js</title>
<g id="a_node6"><a xlink:href="6-fetch-and-render/examples/albums/src/components/render-photo.js" xlink:title="render&#45;photo.js">
<path fill="#ffffcc" stroke="black" d="M541.1,-127.3C541.1,-127.3 477.47,-127.3 477.47,-127.3 474.37,-127.3 471.27,-124.2 471.27,-121.1 471.27,-121.1 471.27,-114.9 471.27,-114.9 471.27,-111.8 474.37,-108.7 477.47,-108.7 477.47,-108.7 541.1,-108.7 541.1,-108.7 544.2,-108.7 547.3,-111.8 547.3,-114.9 547.3,-114.9 547.3,-121.1 547.3,-121.1 547.3,-124.2 544.2,-127.3 541.1,-127.3"/>
<text text-anchor="middle" x="509.29" y="-115.3" font-family="Helvetica,sans-Serif" font-size="9.00">render&#45;photo.js</text>
</a>
</g>
</g>
<!-- 6&#45;fetch&#45;and&#45;render/examples/albums/src/components/render&#45;album.js&#45;&gt;6&#45;fetch&#45;and&#45;render/examples/albums/src/components/render&#45;photo.js -->
<g id="edge2" class="edge">
<title>6&#45;fetch&#45;and&#45;render/examples/albums/src/components/render&#45;album.js&#45;&gt;6&#45;fetch&#45;and&#45;render/examples/albums/src/components/render&#45;photo.js</title>
<path fill="none" stroke="#000000" stroke-width="2" stroke-opacity="0.200000" d="M446.06,-118C452.22,-118 458.63,-118 464.9,-118"/>
<polygon fill="#000000" fill-opacity="0.200000" stroke="#000000" stroke-width="2" stroke-opacity="0.200000" points="465.1,-120.1 471.1,-118 465.1,-115.9 465.1,-120.1"/>
</g>
<!-- 6&#45;fetch&#45;and&#45;render/examples/albums/src/handlers/choose&#45;album.js -->
<g id="node7" class="node">
<title>6&#45;fetch&#45;and&#45;render/examples/albums/src/handlers/choose&#45;album.js</title>
<g id="a_node7"><a xlink:href="6-fetch-and-render/examples/albums/src/handlers/choose-album.js" xlink:title="choose&#45;album.js">
<path fill="#ffffcc" stroke="black" d="M328.08,-142.3C328.08,-142.3 259.46,-142.3 259.46,-142.3 256.36,-142.3 253.26,-139.2 253.26,-136.1 253.26,-136.1 253.26,-129.9 253.26,-129.9 253.26,-126.8 256.36,-123.7 259.46,-123.7 259.46,-123.7 328.08,-123.7 328.08,-123.7 331.18,-123.7 334.28,-126.8 334.28,-129.9 334.28,-129.9 334.28,-136.1 334.28,-136.1 334.28,-139.2 331.18,-142.3 328.08,-142.3"/>
<text text-anchor="middle" x="293.77" y="-130.3" font-family="Helvetica,sans-Serif" font-size="9.00">choose&#45;album.js</text>
</a>
</g>
</g>
<!-- 6&#45;fetch&#45;and&#45;render/examples/albums/src/handlers/choose&#45;album.js&#45;&gt;6&#45;fetch&#45;and&#45;render/examples/albums/src/api&#45;calls/typicode&#45;resource.js -->
<g id="edge3" class="edge">
<title>6&#45;fetch&#45;and&#45;render/examples/albums/src/handlers/choose&#45;album.js&#45;&gt;6&#45;fetch&#45;and&#45;render/examples/albums/src/api&#45;calls/typicode&#45;resource.js</title>
<path fill="none" stroke="#000000" stroke-width="2" stroke-opacity="0.200000" d="M308.38,-123.68C328.1,-110.18 364.7,-85.12 386.98,-69.86"/>
<polygon fill="#000000" fill-opacity="0.200000" stroke="#000000" stroke-width="2" stroke-opacity="0.200000" points="388.29,-71.52 392.05,-66.4 385.91,-68.05 388.29,-71.52"/>
</g>
<!-- 6&#45;fetch&#45;and&#45;render/examples/albums/src/handlers/choose&#45;album.js&#45;&gt;6&#45;fetch&#45;and&#45;render/examples/albums/src/components/four&#45;oh&#45;four.js -->
<g id="edge4" class="edge">
<title>6&#45;fetch&#45;and&#45;render/examples/albums/src/handlers/choose&#45;album.js&#45;&gt;6&#45;fetch&#45;and&#45;render/examples/albums/src/components/four&#45;oh&#45;four.js</title>
<path fill="none" stroke="#000000" stroke-width="2" stroke-opacity="0.200000" d="M309.45,-142.37C320.44,-149.08 336,-157.95 350.52,-164 355.09,-165.9 359.97,-167.67 364.85,-169.28"/>
<polygon fill="#000000" fill-opacity="0.200000" stroke="#000000" stroke-width="2" stroke-opacity="0.200000" points="364.23,-171.29 370.58,-171.1 365.5,-167.28 364.23,-171.29"/>
</g>
<!-- 6&#45;fetch&#45;and&#45;render/examples/albums/src/handlers/choose&#45;album.js&#45;&gt;6&#45;fetch&#45;and&#45;render/examples/albums/src/components/other&#45;error.js -->
<g id="edge5" class="edge">
<title>6&#45;fetch&#45;and&#45;render/examples/albums/src/handlers/choose&#45;album.js&#45;&gt;6&#45;fetch&#45;and&#45;render/examples/albums/src/components/other&#45;error.js</title>
<path fill="none" stroke="#000000" stroke-width="2" stroke-opacity="0.200000" d="M334.53,-138.73C345.03,-140.25 356.36,-141.88 366.82,-143.39"/>
<polygon fill="#000000" fill-opacity="0.200000" stroke="#000000" stroke-width="2" stroke-opacity="0.200000" points="366.63,-145.48 372.87,-144.26 367.23,-141.32 366.63,-145.48"/>
</g>
<!-- 6&#45;fetch&#45;and&#45;render/examples/albums/src/handlers/choose&#45;album.js&#45;&gt;6&#45;fetch&#45;and&#45;render/examples/albums/src/components/render&#45;album.js -->
<g id="edge6" class="edge">
<title>6&#45;fetch&#45;and&#45;render/examples/albums/src/handlers/choose&#45;album.js&#45;&gt;6&#45;fetch&#45;and&#45;render/examples/albums/src/components/render&#45;album.js</title>
<path fill="none" stroke="#000000" stroke-width="2" stroke-opacity="0.200000" d="M334.53,-127.63C343.22,-126.45 352.48,-125.2 361.34,-124"/>
<polygon fill="#000000" fill-opacity="0.200000" stroke="#000000" stroke-width="2" stroke-opacity="0.200000" points="361.74,-126.07 367.4,-123.18 361.18,-121.91 361.74,-126.07"/>
</g>
<!-- 6&#45;fetch&#45;and&#45;render/examples/albums/src/init.js -->
<g id="node8" class="node">
<title>6&#45;fetch&#45;and&#45;render/examples/albums/src/init.js</title>
<g id="a_node8"><a xlink:href="6-fetch-and-render/examples/albums/src/init.js" xlink:title="init.js">
<path fill="#ffffcc" stroke="black" d="M87.8,-142.3C87.8,-142.3 46.2,-142.3 46.2,-142.3 43.1,-142.3 40,-139.2 40,-136.1 40,-136.1 40,-129.9 40,-129.9 40,-126.8 43.1,-123.7 46.2,-123.7 46.2,-123.7 87.8,-123.7 87.8,-123.7 90.9,-123.7 94,-126.8 94,-129.9 94,-129.9 94,-136.1 94,-136.1 94,-139.2 90.9,-142.3 87.8,-142.3"/>
<text text-anchor="middle" x="67" y="-130.3" font-family="Helvetica,sans-Serif" font-size="9.00">init.js</text>
</a>
</g>
</g>
<!-- 6&#45;fetch&#45;and&#45;render/examples/albums/src/listeners/fetch&#45;and&#45;render&#45;album.js -->
<g id="node9" class="node">
<title>6&#45;fetch&#45;and&#45;render/examples/albums/src/listeners/fetch&#45;and&#45;render&#45;album.js</title>
<g id="a_node9"><a xlink:href="6-fetch-and-render/examples/albums/src/listeners/fetch-and-render-album.js" xlink:title="fetch&#45;and&#45;render&#45;album.js">
<path fill="#ffffcc" stroke="black" d="M222.82,-142.3C222.82,-142.3 116.2,-142.3 116.2,-142.3 113.09,-142.3 109.99,-139.2 109.99,-136.1 109.99,-136.1 109.99,-129.9 109.99,-129.9 109.99,-126.8 113.09,-123.7 116.2,-123.7 116.2,-123.7 222.82,-123.7 222.82,-123.7 225.92,-123.7 229.02,-126.8 229.02,-129.9 229.02,-129.9 229.02,-136.1 229.02,-136.1 229.02,-139.2 225.92,-142.3 222.82,-142.3"/>
<text text-anchor="middle" x="169.51" y="-130.3" font-family="Helvetica,sans-Serif" font-size="9.00">fetch&#45;and&#45;render&#45;album.js</text>
</a>
</g>
</g>
<!-- 6&#45;fetch&#45;and&#45;render/examples/albums/src/init.js&#45;&gt;6&#45;fetch&#45;and&#45;render/examples/albums/src/listeners/fetch&#45;and&#45;render&#45;album.js -->
<g id="edge7" class="edge">
<title>6&#45;fetch&#45;and&#45;render/examples/albums/src/init.js&#45;&gt;6&#45;fetch&#45;and&#45;render/examples/albums/src/listeners/fetch&#45;and&#45;render&#45;album.js</title>
<path fill="none" stroke="#000000" stroke-width="2" stroke-opacity="0.200000" d="M94.14,-133C97.2,-133 100.41,-133 103.71,-133"/>
<polygon fill="#000000" fill-opacity="0.200000" stroke="#000000" stroke-width="2" stroke-opacity="0.200000" points="103.73,-135.1 109.73,-133 103.73,-130.9 103.73,-135.1"/>
</g>
<!-- 6&#45;fetch&#45;and&#45;render/examples/albums/src/listeners/fetch&#45;and&#45;render&#45;album.js&#45;&gt;6&#45;fetch&#45;and&#45;render/examples/albums/src/handlers/choose&#45;album.js -->
<g id="edge8" class="edge">
<title>6&#45;fetch&#45;and&#45;render/examples/albums/src/listeners/fetch&#45;and&#45;render&#45;album.js&#45;&gt;6&#45;fetch&#45;and&#45;render/examples/albums/src/handlers/choose&#45;album.js</title>
<path fill="none" stroke="#000000" stroke-width="2" stroke-opacity="0.200000" d="M229.13,-133C235.07,-133 241.04,-133 246.82,-133"/>
<polygon fill="#000000" fill-opacity="0.200000" stroke="#000000" stroke-width="2" stroke-opacity="0.200000" points="247.01,-135.1 253.01,-133 247.01,-130.9 247.01,-135.1"/>
</g>
</g>
</svg>
